<?xml version="1.0" encoding="utf-8"?>
<!-- Generator: Adobe Illustrator 24.1.1, SVG Export Plug-In . SVG Version: 6.00 Build 0)  -->
<svg version="1.1" id="Layer_1" xmlns="http://www.w3.org/2000/svg" xmlns:xlink="http://www.w3.org/1999/xlink" x="0px" y="0px"
	 viewBox="0 0 512 512" style="enable-background:new 0 0 512 512;" xml:space="preserve">
<style type="text/css">
	.st0{fill:url(#SVGID_1_);}
	.st1{fill:url(#SVGID_2_);}
	.st2{fill:url(#SVGID_3_);}
	.st3{fill:url(#SVGID_4_);}
</style>
<linearGradient id="SVGID_1_" gradientUnits="userSpaceOnUse" x1="67.9131" y1="344.6487" x2="482.8532" y2="162.8967">
	<stop  offset="0" style="stop-color:#5F73FF"/>
	<stop  offset="0.2011" style="stop-color:#5E89FF"/>
	<stop  offset="0.7318" style="stop-color:#70B6E4"/>
	<stop  offset="1" style="stop-color:#71CCE3"/>
</linearGradient>
<path class="st0" d="M168.23,400c-20.02,10.09-88.87-25.94-107.77-43.4c-5.12-27.06,34.91-191.68,62.29-219.06
	s84.71-27.38,84.71-27.38c8.84,0,16.01-7.17,16.01-16.01s-7.17-16.01-16.01-16.01c-2.88,0-71.1,0-107.45,36.67
	C70.23,144.75,8.26,349.88,35.96,377.74c13.45,13.29,78.46,55.73,124.1,55.73c7.8,0.21,15.54-1.43,22.58-4.8
	c7.85-4,11-13.58,7.05-21.46C185.75,399.29,176.14,396.07,168.23,400z M410.99,114.8c-36.35-36.19-104.57-36.67-107.45-36.67
	c-8.84,0-16.01,7.17-16.01,16.01s7.17,16.01,16.01,16.01c16.01,0,62.29,4.96,84.71,27.38c27.38,27.38,67.42,192.16,62.29,219.06
	c-18.9,17.45-87.75,53.48-107.77,43.4c-7.92-3.93-17.52-0.71-21.46,7.21c-3.95,7.87-0.81,17.46,7.05,21.46
	c7.04,3.37,14.78,5.02,22.58,4.8c45.64,0,110.65-42.44,124.1-55.73C502.74,349.88,440.77,144.75,410.99,114.8z"/>
<linearGradient id="SVGID_2_" gradientUnits="userSpaceOnUse" x1="293.2661" y1="290.5825" x2="351.2963" y2="263.4664">
	<stop  offset="0" style="stop-color:#5E89FF"/>
	<stop  offset="1" style="stop-color:#70B6E4"/>
</linearGradient>
<ellipse class="st1" cx="319.55" cy="278.3" rx="32.03" ry="36.03"/>
<linearGradient id="SVGID_3_" gradientUnits="userSpaceOnUse" x1="126.7937" y1="329.1753" x2="417.5325" y2="194.8597">
	<stop  offset="0" style="stop-color:#5E89FF"/>
	<stop  offset="1" style="stop-color:#70B6E4"/>
</linearGradient>
<path class="st2" d="M383.61,190.23c5.53,0.01,10.68-2.83,13.61-7.53c4.69-7.5,2.42-17.38-5.08-22.07
	c-0.02-0.01-0.03-0.02-0.05-0.03c-134.99-84.39-267.58-3.52-273.19,0c-7.52,4.69-9.81,14.58-5.12,22.1
	c4.69,7.52,14.58,9.81,22.1,5.12c4.8-3.04,121.38-73.66,239.24,0C377.67,189.4,380.61,190.24,383.61,190.23z M369.03,373.1
	c0.82,1.7,1.9,3.27,3.2,4.64c6.23,6.28,16.37,6.32,22.65,0.09c0.03-0.03,0.06-0.06,0.09-0.09c12.11-11.34,19.49-26.84,20.66-43.4
	c0.01-6.12-3.47-11.72-8.97-14.41c-5.48-2.66-12-1.98-16.81,1.76c-37.9,30.83-85.5,47.23-134.35,46.28l0,0
	c-48.74,0.69-96.17-15.75-134.03-46.44c-4.91-3.82-11.6-4.44-17.13-1.6c-5.5,2.69-8.98,8.29-8.97,14.41
	c1.17,16.55,8.55,32.05,20.66,43.4c6.23,6.28,16.37,6.32,22.65,0.09c0.03-0.03,0.06-0.06,0.09-0.09c1.3-1.37,2.38-2.94,3.2-4.64
	c33.28,17.7,70.4,26.94,108.09,26.9h10.89C298.64,400.04,335.76,390.8,369.03,373.1z"/>
<g>
	<linearGradient id="SVGID_4_" gradientUnits="userSpaceOnUse" x1="154" y1="276" x2="231" y2="276">
		<stop  offset="0" style="stop-color:#5E89FF"/>
		<stop  offset="1" style="stop-color:#70B6E4"/>
	</linearGradient>
	<path class="st3" d="M215,292h-45c-8.84,0-16-7.16-16-16v0c0-8.84,7.16-16,16-16h45c8.84,0,16,7.16,16,16v0
		C231,284.84,223.84,292,215,292z"/>
</g>
</svg>
